<svg xmlns="http://www.w3.org/2000/svg" width="245" height="32" fill="currentColor" viewBox="0 0 245 32"><path d="M20.6 17c.5 0 .8.2 1.1.5s.4.8.4 1.4v.4c0 .2 0 .3-.1.4-.4-.1-.8-.2-1.2-.2-.1.8-.4 1.6-.9 2.5s-1 1.7-1.7 2.4c-.7.8-1.4 1.4-2.2 2s-1.6 1-2.3 1.2c-2.4 0-4.2-.6-5.3-1.8s-1.7-3.1-1.7-5.6c0-1.9.3-3.7 1-5.4s1.6-3.3 2.7-4.6c1.1-1.4 2.4-2.4 3.9-3.3 1.5-.8 3-1.2 4.6-1.2 1.2 0 2.2.3 2.9.8s1 1.3 1 2.2c0 .6-.1 1.2-.4 1.8q-.45.75-1.5 1.8c-.4-.1-.8-.3-1.1-.7-.3-.3-.5-.7-.6-1.1.6-.4 1-.9 1.3-1.2s.5-.9.5-1.5q0-1.2-1.5-1.2c-.8 0-1.7.3-2.6.9s-1.8 1.5-2.7 2.6c-1.3 1.6-2.3 3.3-2.9 5q-.9 2.55-.9 5.7c0 .8.1 1.5.2 2.2.2.6.4 1.2.6 1.7.3.5.6.9 1 1.2s.8.5 1.2.5c.6-.1 1.2-.4 1.7-.9s1.1-1 1.6-1.6.9-1.3 1.2-2 .5-1.4.6-2c-.5.1-1 .2-1.4.3-.5.1-.9.1-1.3.1-.5 0-1-.1-1.4-.4s-.7-.6-.8-1.1c.3-.2.8-.4 1.4-.6s1.3-.4 2-.6 1.4-.3 2.1-.4c.6-.1 1.1-.2 1.5-.2m9.9 8c-.3-.3-.6-.6-.7-1.1s-.2-.8-.2-1.1c0-.4 0-.7.1-1-.1 0-.2.1-.5.4s-.5.6-.8 1l-.9 1.2c-.3.4-.5.7-.6.8-.2.3-.5.4-.7.6s-.4.2-.5.2c-.3 0-.6 0-.9-.1s-.6-.2-.9-.4-.5-.4-.7-.7-.3-.5-.4-.9v-1.2c0-.3.1-.7.2-1.1.2-.7.4-1.5.7-2.3.3-.9.7-1.7 1.1-2.6s.9-1.6 1.4-2.3 1.1-1.3 1.6-1.7h.6c.2 0 .4.1.7.1s.4.2.6.3.4.2.5.4q-.3.3-1.2 1.8c-.7 1-1.4 2.5-2.2 4.4q-.15.3-.3.9c-.1.4-.3.8-.4 1.2l-.3 1.2c-.1.4-.1.7-.1.9 0 .1 0 .3.1.3s.1.1.1.2c.3-.1.6-.4 1-.9s1-1.2 1.7-2.2c.2-.3.4-.5.6-.9.2-.3.5-.7.7-1 .3-.4.5-.8.7-1.1l.6-1.2c.1-.2.2-.5.3-.8s.3-.6.4-.9.4-.7.6-1 .5-.6.8-.9c.2 0 .5 0 .8.1s.5.1.8.2c.2.1.5.2.6.3.2.1.3.2.4.3-.3.8-.7 1.6-1.1 2.3-.4.8-.8 1.5-1.1 2.3-.3.7-.6 1.5-.9 2.2-.2.7-.4 1.5-.4 2.2 0 .4 0 .7.1 1s.1.5.2.7.1.3.2.5c.1.1.1.2.1.3l-.1.1h-.1c-.1 0-.3 0-.5-.1s-.4-.1-.7-.2c-.2-.1-.5-.2-.7-.3 0-.1-.2-.2-.4-.4m5.9-1.2v-.6c0-.2.1-.6.1-1q.15-.6.3-1.5c.1-.6.3-1.3.4-2.1 0-.2.1-.5.2-.9s.3-.8.5-1.3c.2-.4.5-.9.8-1.3s.7-.7 1.1-.9q.45.15 1.2.6c.5.3.9.7 1.3 1.2-.4.5-.8.9-1 1.4-.3.5-.5 1-.8 1.5-.2.5-.4 1-.6 1.6s-.4 1.1-.6 1.7c-.2.5-.4 1-.5 1.6-.2.5-.3 1-.3 1.4v.7c0 .1-.1.2-.1.2-.1 0-.2 0-.4-.1s-.4-.2-.7-.4c-.2-.2-.4-.4-.6-.7-.3-.4-.3-.7-.3-1.1m5.1-11.7c0-.1 0-.3.1-.5-.1-.1-.2-.2-.2-.4-.1-.2-.1-.3-.1-.5s0-.4.1-.7c0-.3.1-.6.2-.9s.2-.7.3-1c.1-.4.2-.7.3-1 .2 0 .5.1.8.2s.6.3 1 .5l.9.6q.45.3.6.6l-.8.8c-.3.4-.6.7-.9 1.1s-.6.8-.8 1.1c-.3.3-.4.6-.5.7q-.3 0-.6-.3c-.3-.3-.4-.2-.4-.3m1.2 11.8q0-1.2.6-3.3c.4-1.4.9-3.1 1.6-5C46 12.5 47 10 48 7.9c1-2 1.9-3.6 2.9-4.7.2 0 .5.1.8.3.3.1.6.3.9.5s.6.3.8.5.4.3.5.4c-1.4 1.7-2.6 3.4-3.7 5.3s-2 4.1-2.9 6.6c-.8 2.1-1.3 4-1.7 5.7s-.6 3.1-.6 4.3v.8c-.3 0-.5-.1-.6-.2-.2-.1-.3-.2-.4-.3 0-.1-.1-.2-.3-.4l-.4-.4c-.2-.1-.3-.4-.4-.8s-.2-1-.2-1.6m6.3 0q0-1.2.6-3.3c.4-1.4.9-3.1 1.6-5 1.1-3 2.2-5.6 3.1-7.6 1-2 1.9-3.6 2.9-4.7.2 0 .5.1.8.3.3.1.6.3.9.5s.6.3.8.5.4.3.5.4c-1.4 1.7-2.6 3.4-3.7 5.3s-2 4.1-2.9 6.6c-.8 2.1-1.3 4-1.7 5.7s-.6 3.1-.6 4.3v.8c-.3 0-.5-.1-.6-.2-.2-.1-.3-.2-.4-.3 0-.1-.1-.2-.3-.4l-.4-.4c-.2-.1-.3-.4-.4-.8s-.2-1.1-.2-1.7m15.7-9.2c.2 0 .4 0 .6.1s.5.1.7.2.4.2.5.3.2.2.2.3c-.4.8-.7 1.5-1 2.3s-.6 1.5-.8 2.2-.4 1.4-.5 2-.2 1.1-.2 1.6.1.9.2 1.3c.1.3.3.6.5.7-.2.1-.5.3-.8.4s-.6.1-.9.1c-1 0-1.5-.7-1.5-2 0-1 .3-2.4 1-4.2-.4.8-.8 1.6-1.2 2.3-.5.7-1 1.3-1.5 1.9s-1 1-1.5 1.4c-.5.3-.9.6-1.4.6-.7 0-1.2-.3-1.6-.9S55 23.9 55 23c0-1 .2-2.1.6-3.2s1-2.2 1.7-3.1c.7-1 1.4-1.8 2.2-2.4s1.6-1 2.3-1l.6.3.6.6c.2.2.4.4.5.7.1.2.2.4.2.6-.7.1-1.5.5-2.2 1.1s-1.5 1.3-2.1 2.1q-.9 1.2-1.5 2.7c-.4 1-.6 1.8-.6 2.7 0 .3.1.6.4.6.5-.1 1.1-.6 1.8-1.3.7-.8 1.5-2 2.5-3.6.2-.3.4-.7.6-1.1s.5-.8.7-1.2.5-.9.7-1.3.5-1.1.7-1.5M75.3 25c-.3-.3-.6-.6-.7-1.1s-.2-.8-.2-1.1c0-.4 0-.7.1-1-.1 0-.2.1-.5.4s-.5.6-.8 1l-.9 1.2c-.3.4-.5.7-.6.8-.2.3-.5.4-.7.6s-.4.2-.5.2c-.3 0-.6 0-.9-.1s-.6-.2-.9-.4-.5-.4-.7-.7-.3-.5-.4-.9v-1.2c0-.3.1-.7.2-1.1.2-.7.4-1.5.7-2.3.3-.9.7-1.7 1.1-2.6s.9-1.6 1.4-2.3 1.1-1.3 1.6-1.7h.6c.2 0 .4.1.7.1s.4.2.6.3.4.2.5.4q-.3.3-1.2 1.8c-.7 1-1.4 2.5-2.2 4.4q-.15.3-.3.9c-.1.4-.3.8-.4 1.2l-.3 1.2c-.1.4-.1.7-.1.9 0 .1 0 .3.1.3s.1.1.1.2c.3-.1.6-.4 1-.9s1-1.2 1.7-2.2c.2-.3.4-.5.6-.9.2-.3.5-.7.7-1 .3-.4.5-.8.7-1.1l.6-1.2c.1-.2.2-.5.3-.8s.3-.6.4-.9.4-.7.6-1 .5-.6.8-.9c.2 0 .5 0 .8.1s.5.1.8.2c.2.1.5.2.6.3.2.1.3.2.4.3-.3.8-.7 1.6-1.1 2.3-.4.8-.8 1.5-1.1 2.3-.3.7-.6 1.5-.9 2.2-.2.7-.4 1.5-.4 2.2 0 .4 0 .7.1 1s.1.5.2.7.1.3.2.5c.1.1.1.2.1.3l-.1.1h-.1c-.1 0-.3 0-.5-.1s-.4-.1-.7-.2c-.2-.1-.5-.2-.7-.3 0-.1-.2-.2-.4-.4m21.5-7.7c-.3 0-.6.2-1.1.5s-.9.8-1.3 1.4c-.5.5-1 1.2-1.5 1.8-.5.7-1 1.3-1.5 2s-.9 1.3-1.3 1.9-.8 1-1.1 1.4c-.4-.2-.7-.4-1-.7q-.45-.45-.6-1.2c.1-.6.2-1.1.4-1.7s.4-1.2.6-1.9c.3-.6.6-1.3 1-2s.9-1.5 1.4-2.3c-.3 0-.6.2-1.1.6s-1 .8-1.5 1.4-1.1 1.2-1.7 2c-.6.7-1.1 1.4-1.6 2.1-.7.9-1.2 1.8-1.7 2.5-.4.7-.8 1.1-1 1.2-.5-.3-.8-.7-1-1.1s-.3-.8-.4-1.3c0-.4.1-1 .2-1.6s.3-1.3.5-2c.4-1.3.9-2.6 1.6-3.9s1.3-2.5 1.9-3.6c.5.1 1 .3 1.4.5s.8.6 1.3 1c-.2.6-.5 1.1-.8 1.8-.4.6-.8 1.3-1.2 2s-.8 1.4-1.1 2.1-.6 1.4-.7 2.2c.5-.7 1.1-1.5 1.8-2.5.7-.9 1.4-1.8 2.1-2.6s1.5-1.5 2.2-2.1 1.4-.9 1.9-.9c.2 0 .4 0 .7.1s.5.2.7.3.4.2.5.3l.2.2q-.15.6-.6 1.5c-.45.9-.7 1.3-1.1 2s-.7 1.3-1.1 2q-.45.9-.6 1.5c.9-1.2 1.7-2.3 2.5-3.3s1.5-1.8 2.2-2.5 1.3-1.2 1.9-1.6 1.1-.6 1.7-.6c.4 0 .7.1 1 .3s.5.5.7.8c-.2.5-.4 1.2-.8 1.9-.4.8-.7 1.6-1.1 2.4s-.7 1.7-1 2.5-.4 1.5-.4 2.2c0 .4.1.6.2.7s.3.2.5.2.4 0 .6-.1.3-.1.4-.1c.1.1.2.2.2.3v.3c-.4.3-.7.5-1.1.7s-.8.3-1.3.3c-.4 0-.8-.1-1.1-.2s-.5-.3-.7-.6-.3-.5-.4-.9c-.1-.3-.1-.7-.1-1.1 0-.6.1-1.2.2-1.8.2-.6.4-1.2.6-1.7s.5-1.1.7-1.5c.4-.7.6-1.1.8-1.5m14.7-2.9c-.1 1.1-.3 2.1-.6 2.9s-.8 1.5-1.4 2.1-1.3 1.1-2.2 1.6-1.9 1-3 1.4v.7c0 .2 0 .5.1.7 0 .3.1.5.2.7s.2.4.4.5.4.2.6.2c.5 0 1-.1 1.4-.3.5-.2.9-.5 1.3-.8s.8-.7 1.2-1l1-1 .5.5q-1.2 1.65-2.7 2.7c-1.5 1.05-1.9 1.2-2.7 1.4-1.2-.1-2.2-.6-2.9-1.4s-1-1.7-1-2.8c0-.7.1-1.5.3-2.3s.5-1.5.9-2.2.8-1.4 1.3-2 1-1.2 1.6-1.6c.6-.5 1.2-.8 1.8-1.1s1.2-.4 1.8-.4c.6.1 1.4.6 2.1 1.5m-1.9.9q-.75.15-1.5.6c-.5.3-1 .8-1.5 1.3s-.9 1.2-1.3 1.9-.7 1.5-.9 2.3q2.1-1.05 3.6-2.7c1-1 1.5-2.1 1.6-3.4m27.3-7.9c.1.3.1.5.1.6v.5c0 .6-.1 1.1-.4 1.7-.3.5-.6.9-1.1 1.1-.4-.5-.8-.9-1.3-1.3s-1.1-.6-1.7-.9-1.3-.4-1.9-.5c-.7-.1-1.3-.2-1.9-.2s-1.2 0-1.8.1c-.5.1-1 .2-1.5.4-.4.2-.8.4-1 .6-.2.3-.4.5-.4.9.1.4.3.8.7 1.2s1 .8 1.6 1.2 1.3.8 2.1 1.1c.8.4 1.5.7 2.3 1.1q1.35.6 2.4 1.2c1.05.6 1.2.8 1.6 1.2s.8.9 1 1.5.3 1.2.3 2c0 .9-.2 1.8-.5 2.6s-.8 1.5-1.3 2.1c-.6.6-1.3 1.1-2.1 1.4s-1.8.5-2.8.5-2.1-.2-3.3-.5-2.3-.7-3.3-1.3c-1-.5-1.9-1.1-2.5-1.8s-1-1.4-1-2.2c0-.4.1-.8.3-1.4s.6-1.1 1.1-1.8c.1.5.3 1.2.9 1.9q.75 1.05 2.4 2.1c1 .6 2 1 3.1 1.3s2 .4 3 .4 1.8-.1 2.5-.4q.9-.45 1.5-.9c.4-.4.6-.7.8-1.1s.2-.6.2-.9c0-.4-.2-.7-.5-1s-.7-.7-1.3-1c-.5-.3-1.1-.6-1.8-1-.7-.3-1.4-.6-2.2-1-1.1-.5-2.1-1-2.9-1.4s-1.5-.9-2-1.4-.9-.9-1.2-1.4c-.2-.5-.4-1.1-.4-1.7 0-1 .3-2 .9-2.9s1.5-1.6 2.6-2.1c.6-.3 1.2-.4 1.8-.5s1.3-.2 1.9-.2c1.2 0 2.3.2 3.5.5 1.2.7 2.3 1.1 3.5 1.6m10.5 7.3c.2 0 .4 0 .6.1s.5.1.7.2.4.2.5.3.2.2.2.3c-.4.8-.7 1.5-1 2.3s-.6 1.5-.8 2.2-.4 1.4-.5 2-.2 1.1-.2 1.6.1.9.2 1.3c.1.3.3.6.5.7-.2.1-.5.3-.8.4s-.6.1-.9.1c-1 0-1.5-.7-1.5-2 0-1 .3-2.4 1-4.2-.4.8-.8 1.6-1.2 2.3-.5.7-.9 1.4-1.4 1.9-.5.6-1 1-1.5 1.4-.5.3-.9.6-1.4.6-.7 0-1.2-.3-1.6-.9s-.6-1.4-.6-2.3c0-1 .2-2.1.6-3.2s1-2.2 1.7-3.1c.7-1 1.4-1.8 2.2-2.4s1.6-1 2.3-1l.6.3.6.6c.2.2.4.4.5.7.1.2.2.4.2.6-.7.1-1.5.5-2.2 1.1q-1.2.9-2.1 2.1c-.9 1.2-1.1 1.7-1.5 2.7s-.6 1.8-.6 2.7c0 .3.1.6.4.6.5-.1 1.1-.6 1.8-1.3.7-.8 1.5-2 2.5-3.6.2-.3.4-.7.6-1.1s.5-.8.7-1.2.5-.9.7-1.3c.3-.7.5-1.1.7-1.5m3.3 9.1v-.6c0-.2.1-.6.1-1q.15-.6.3-1.5c.15-.9.3-1.3.4-2.1 0-.2.1-.5.2-.9s.3-.8.5-1.3c.2-.4.5-.9.8-1.3s.7-.7 1.1-.9q.45.15 1.2.6c.75.45.9.7 1.3 1.2-.4.5-.8.9-1 1.4-.3.5-.5 1-.8 1.5-.2.5-.4 1-.6 1.6-.2.5-.4 1.1-.6 1.7-.2.5-.4 1-.5 1.6s-.3 1-.3 1.4v.7c0 .1-.1.2-.1.2-.1 0-.2 0-.4-.1s-.4-.2-.7-.4c-.2-.2-.4-.4-.6-.7-.2-.4-.3-.7-.3-1.1m5.2-11.7c0-.1 0-.3.1-.5-.1-.1-.2-.2-.2-.4-.1-.2-.1-.3-.1-.5s0-.4.1-.7c0-.3.1-.6.2-.9s.2-.7.3-1c.1-.4.2-.7.3-1 .2 0 .5.1.8.2s.6.3 1 .5l.9.6q.45.3.6.6l-.8.8c-.3.4-.6.7-.9 1.1s-.6.8-.8 1.1-.4.6-.5.7q-.3 0-.6-.3c-.3-.3-.4-.2-.4-.3m5.5.4c.5.1.9.5 1.3 1s.7 1 .9 1.6q-.3.75-.9 1.8l-1.2 2.1c-.4.7-.8 1.4-1.1 2s-.5 1.2-.6 1.6c.3-.3.6-.7 1-1.1s.7-.8 1-1.2.6-.8.9-1.1.5-.6.7-.7c.3-.4.7-.8 1.2-1.3s1-.9 1.5-1.3 1-.8 1.6-1.1c.5-.3 1-.4 1.4-.4.5 0 .9.2 1.2.5s.6.6.7 1c0 0-.1.1-.2.1s-.3.2-.6.5-.5.8-.8 1.3l-.9 1.8c-.3.7-.5 1.3-.7 2s-.3 1.3-.3 1.9c0 .5.1.7.2.9s.3.2.5.2.4 0 .6-.1.4-.1.5-.1.1.1.2.2.1.2.1.3c-.1.1-.3.3-.5.4s-.4.2-.6.4l-.6.3c-.2.1-.4.1-.6.1-.5 0-.9-.1-1.3-.2-.3-.2-.6-.4-.8-.6-.2-.3-.3-.6-.4-.9-.1-.4-.1-.7-.1-1.1 0-.2 0-.5.1-.7 0-.3.1-.6.2-1s.3-.8.5-1.3.4-1.1.8-1.8c0 0-.3.1-.7.4-.5.3-.9.6-1.5 1.2-.8.8-1.6 1.6-2.3 2.4s-1.4 1.7-2.1 2.6c-.4.6-.7 1-1 1.4s-.6.6-.8.8c-.4-.2-.7-.5-.8-.9-.2-.4-.3-.8-.4-1.2 0-.3 0-.8.1-1.3s.2-1.1.4-1.7.4-1.3.6-2 .5-1.4.8-2.1c.7-1.6 1.3-2.8 1.9-3.7.4-1.3.8-1.8.9-1.9m11.8 2.8c-.1-.1-.2-.3-.2-.7s-.1-.7-.1-.9c.5.1.9.1 1.3.1h1.2c.3-.5.6-1.1.9-1.6s.6-1 .9-1.4.6-.8.8-1.1l.6-.6c.2 0 .4 0 .7.1s.6.1.8.2c.3.1.5.2.8.3.2.1.4.2.5.3-.5.7-1 1.3-1.4 1.9s-.8 1.2-1.3 2h1.1c.4 0 .7 0 1.1-.1.1.1.2.2.2.3.1.1.1.3.1.4-.9.3-2 .5-3.2.5-.5.9-.9 1.7-1.2 2.6-.4.9-.6 1.7-.9 2.5-.2.8-.4 1.5-.6 2.2-.1.7-.2 1.3-.2 1.9 0 .8.3 1.2.9 1.3.5-.1 1.1-.2 1.5-.4.5-.2.9-.4 1.3-.8.1.2.2.3.2.4-.1.2-.3.3-.6.6-.3.2-.5.4-.9.6-.3.2-.6.4-.9.5s-.5.2-.6.2c-.4 0-.9-.1-1.3-.3s-.9-.4-1.2-.7q-.6-.45-.9-.9c-.3-.45-.4-.7-.4-1 0-.4.1-1 .2-1.6.1-.7.3-1.4.5-2.1.2-.8.5-1.6.8-2.4s.6-1.7.9-2.5h-1.4zm7.9 9.9c0-.6.1-1.4.2-2.2q.15-1.35.6-2.7c.2-1 .5-2 .9-3.1.3-1.1.7-2.1 1.1-3.2.4-1 .8-1.9 1.3-2.9s1-1.9 1.6-2.9c.6-.9 1.1-1.8 1.7-2.7.6-.8 1.2-1.6 1.8-2.3.3 0 .6 0 .9.1s.7.2 1 .3.6.3.9.4c.3.2.5.3.6.5-1.3 1.4-2.6 2.8-3.6 4.2s-1.9 2.7-2.6 4c-.3.7-.7 1.3-.9 1.9s-.5 1.2-.8 1.8l-.6 1.8c-.2.6-.4 1.2-.5 1.8 3.5-4.4 6-6.6 7.7-6.6.5 0 1 .2 1.5.5s1 .7 1.4 1.2c-.6.6-1.1 1.3-1.7 2.2s-1.1 1.7-1.6 2.6q-.75 1.35-1.2 2.4c-.3.7-.5 1.3-.5 1.7 0 .2 0 .3.1.4s.2.1.4.1c.3 0 .5 0 .6-.1.2-.1.3-.1.3-.1.1.1.1.2.2.3v.1q0 .15-.3.3c-.2.1-.5.3-.8.4s-.6.3-.9.4-.5.2-.6.2c-.2 0-.4 0-.5-.1-.2-.1-.3-.2-.5-.4s-.2-.3-.3-.5-.1-.4-.1-.6c0-.3.1-.7.2-1.2.2-.5.4-1.2.6-1.9.3-.7.6-1.5 1-2.3s.8-1.7 1.2-2.6c0-.1 0-.1-.1-.1s-.2.1-.4.2-.4.3-.6.4c-.6.5-1.3 1.1-2 1.8s-1.3 1.5-1.9 2.3q-.9 1.2-1.8 2.7c-.9 1.5-1 1.9-1.4 2.8-.1.1-.1.2-.2.4-.1.1-.2.2-.3.2s-.1-.1-.2-.2-.2-.3-.3-.5-.2-.4-.2-.6c-.4-.3-.4-.5-.4-.6m14-1.4v-.6c0-.2.1-.6.1-1q.15-.6.3-1.5c.15-.9.3-1.3.4-2.1 0-.2.1-.5.2-.9s.3-.8.5-1.3c.2-.4.5-.9.8-1.3s.7-.7 1.1-.9q.45.15 1.2.6c.75.45.9.7 1.3 1.2-.4.5-.8.9-1 1.4-.3.5-.5 1-.8 1.5-.2.5-.4 1-.6 1.6-.2.5-.4 1.1-.6 1.7-.2.5-.4 1-.5 1.6s-.3 1-.3 1.4v.7c0 .1-.1.2-.1.2-.1 0-.2 0-.4-.1s-.4-.2-.7-.4c-.2-.2-.4-.4-.6-.7-.2-.4-.3-.7-.3-1.1m5.2-11.7c0-.1 0-.3.1-.5-.1-.1-.2-.2-.2-.4-.1-.2-.1-.3-.1-.5s0-.4.1-.7c0-.3.1-.6.2-.9s.2-.7.3-1c.1-.4.2-.7.3-1 .2 0 .5.1.8.2s.6.3 1 .5l.9.6q.45.3.6.6l-.8.8c-.3.4-.6.7-.9 1.1s-.6.8-.8 1.1-.4.6-.5.7q-.3 0-.6-.3c-.3-.3-.4-.2-.4-.3m1.1 11.8q0-1.2.6-3.3c.4-1.4.9-3.1 1.6-5 1.1-3 2.2-5.6 3.1-7.6 1-2 1.9-3.6 2.9-4.7.2 0 .5.1.8.3.3.1.6.3.9.5s.6.3.8.5.4.3.5.4c-1.4 1.7-2.6 3.4-3.7 5.3s-2 4.1-2.9 6.6c-.8 2.1-1.3 4-1.7 5.7s-.6 3.1-.6 4.3v.8c-.3 0-.5-.1-.6-.2s-.3-.2-.4-.3c0-.1-.1-.2-.3-.4l-.4-.4c-.2-.1-.3-.4-.4-.8s-.2-1.1-.2-1.7m6.4 0q0-1.2.6-3.3c.4-1.4.9-3.1 1.6-5 1.1-3 2.2-5.6 3.1-7.6 1-2 1.9-3.6 2.9-4.7.2 0 .5.1.8.3.3.1.6.3.9.5s.6.3.8.5.4.3.5.4c-1.4 1.7-2.6 3.4-3.7 5.3s-2 4.1-2.9 6.6c-.8 2.1-1.3 4-1.7 5.7s-.6 3.1-.6 4.3v.8c-.3 0-.5-.1-.6-.2-.2-.1-.3-.2-.4-.3 0-.1-.1-.2-.3-.4l-.4-.4c-.2-.1-.3-.4-.4-.8-.1-.6-.2-1.1-.2-1.7m6.4-.1v-.6c0-.2.1-.6.1-1q.15-.6.3-1.5c.15-.9.3-1.3.4-2.1 0-.2.1-.5.2-.9s.3-.8.5-1.3c.2-.4.5-.9.8-1.3s.7-.7 1.1-.9q.45.15 1.2.6c.75.45.9.7 1.3 1.2-.4.5-.8.9-1 1.4-.3.5-.5 1-.8 1.5-.2.5-.4 1-.6 1.6-.2.5-.4 1.1-.6 1.7-.2.5-.4 1-.5 1.6s-.3 1-.3 1.4v.7c0 .1-.1.2-.1.2-.1 0-.2 0-.4-.1s-.4-.2-.7-.4c-.2-.2-.4-.4-.6-.7-.2-.4-.3-.7-.3-1.1m5.2-11.7c0-.1 0-.3.1-.5-.1-.1-.2-.2-.2-.4-.1-.2-.1-.3-.1-.5s0-.4.1-.7c0-.3.1-.6.2-.9s.2-.7.3-1c.1-.4.2-.7.3-1 .2 0 .5.1.8.2s.6.3 1 .5l.9.6q.45.3.6.6l-.8.8c-.3.4-.6.7-.9 1.1s-.6.8-.8 1.1-.4.6-.5.7q-.3 0-.6-.3c-.3-.3-.4-.2-.4-.3m10.8 2.3c-.1 1.1-.3 2.1-.6 2.9s-.8 1.5-1.4 2.1-1.3 1.1-2.2 1.6-1.9 1-3 1.4v.7c0 .2 0 .5.1.7 0 .3.1.5.2.7s.2.4.4.5.4.2.6.2c.5 0 1-.1 1.4-.3.5-.2.9-.5 1.3-.8s.8-.7 1.2-1l1-1 .5.5q-1.2 1.65-2.7 2.7c-1.5 1.05-1.9 1.2-2.7 1.4-1.2-.1-2.2-.6-2.9-1.4s-1-1.7-1-2.8c0-.7.1-1.5.3-2.3s.5-1.5.9-2.2.8-1.4 1.3-2 1-1.2 1.6-1.6c.6-.5 1.2-.8 1.8-1.1s1.2-.4 1.8-.4c.6.1 1.4.6 2.1 1.5m-1.8.9q-.75.15-1.5.6c-.5.3-1 .8-1.5 1.3s-.9 1.2-1.3 1.9-.7 1.5-.9 2.3q2.1-1.05 3.6-2.7c1-1 1.5-2.1 1.6-3.4m2.4 9.8c.1-.5.2-1.2.5-2.1.2-.9.5-1.8.8-2.7.3-1 .6-1.9 1-2.9.3-1 .7-1.8 1-2.6.2-.6.4-1 .6-1.3s.4-.6.6-.8c.3 0 .5.1.8.2s.5.2.8.3.5.3.7.4.4.3.5.4c-.5.6-.9 1.2-1.3 2-.4.7-.7 1.7-1.1 2.8 1-.9 1.8-1.7 2.6-2.5s1.4-1.7 2.1-2.6c.1-.1.3-.1.6-.1s.5 0 .7.1.4.2.5.3c-.3.9-.5 1.7-.5 2.6 0 .8.1 1.4.4 1.8 0 .1-.1.3-.4.6-.2.3-.5.6-.7.9-.5-.3-.9-.6-1.3-1s-.7-.9-.8-1.4c-.8.6-1.6 1.2-2.2 1.7s-1.1 1.2-1.5 1.9-.8 1.5-1.1 2.4-.6 2-.9 3.2c-.2 0-.4-.1-.6-.2s-.4-.2-.7-.4c-.2-.1-.4-.3-.6-.5-.3-.2-.4-.4-.5-.5"/></svg>