<?xml version="1.0" encoding="utf-8"?>
<!-- Generator: Adobe Illustrator 25.3.0, SVG Export Plug-In . SVG Version: 6.00 Build 0)  -->
<svg version="1.1" id="Layer_1" xmlns="http://www.w3.org/2000/svg" xmlns:xlink="http://www.w3.org/1999/xlink" x="0px" y="0px"
	 viewBox="0 0 245 32" style="enable-background:new 0 0 245 32;" xml:space="preserve">
<style type="text/css">
	.st0{fill:#FED136;}
</style>
<g>
	<path class="st0" d="M20.6,17c0.5,0,0.8,0.2,1.1,0.5c0.3,0.3,0.4,0.8,0.4,1.4c0,0.1,0,0.3,0,0.4c0,0.2,0,0.3-0.1,0.4
		c-0.4-0.1-0.8-0.2-1.2-0.2c-0.1,0.8-0.4,1.6-0.9,2.5c-0.5,0.9-1,1.7-1.7,2.4c-0.7,0.8-1.4,1.4-2.2,2c-0.8,0.6-1.6,1-2.3,1.2
		c-2.4,0-4.2-0.6-5.3-1.8c-1.1-1.2-1.7-3.1-1.7-5.6c0-1.9,0.3-3.7,1-5.4s1.6-3.3,2.7-4.6c1.1-1.4,2.4-2.4,3.9-3.3
		c1.5-0.8,3-1.2,4.6-1.2c1.2,0,2.2,0.3,2.9,0.8s1,1.3,1,2.2c0,0.6-0.1,1.2-0.4,1.8c-0.3,0.5-0.8,1.1-1.5,1.8
		c-0.4-0.1-0.8-0.3-1.1-0.7c-0.3-0.3-0.5-0.7-0.6-1.1c0.6-0.4,1-0.9,1.3-1.2S21,8.4,21,7.8c0-0.8-0.5-1.2-1.5-1.2
		c-0.8,0-1.7,0.3-2.6,0.9C16,8.1,15.1,9,14.2,10.1c-1.3,1.6-2.3,3.3-2.9,5c-0.6,1.7-0.9,3.6-0.9,5.7c0,0.8,0.1,1.5,0.2,2.2
		c0.2,0.6,0.4,1.2,0.6,1.7c0.3,0.5,0.6,0.9,1,1.2c0.4,0.3,0.8,0.5,1.2,0.5c0.6-0.1,1.2-0.4,1.7-0.9s1.1-1,1.6-1.6
		c0.5-0.6,0.9-1.3,1.2-2s0.5-1.4,0.6-2c-0.5,0.1-1,0.2-1.4,0.3c-0.5,0.1-0.9,0.1-1.3,0.1c-0.5,0-1-0.1-1.4-0.4
		c-0.4-0.3-0.7-0.6-0.8-1.1c0.3-0.2,0.8-0.4,1.4-0.6s1.3-0.4,2-0.6c0.7-0.2,1.4-0.3,2.1-0.4C19.7,17.1,20.2,17,20.6,17z"/>
	<path class="st0" d="M30.5,25c-0.3-0.3-0.6-0.6-0.7-1.1s-0.2-0.8-0.2-1.1c0-0.4,0-0.7,0.1-1c-0.1,0-0.2,0.1-0.5,0.4
		c-0.3,0.3-0.5,0.6-0.8,1c-0.3,0.4-0.6,0.8-0.9,1.2s-0.5,0.7-0.6,0.8c-0.2,0.3-0.5,0.4-0.7,0.6s-0.4,0.2-0.5,0.2
		c-0.3,0-0.6,0-0.9-0.1s-0.6-0.2-0.9-0.4c-0.3-0.2-0.5-0.4-0.7-0.7s-0.3-0.5-0.4-0.9c0-0.5,0-0.9,0-1.2s0.1-0.7,0.2-1.1
		c0.2-0.7,0.4-1.5,0.7-2.3c0.3-0.9,0.7-1.7,1.1-2.6s0.9-1.6,1.4-2.3c0.5-0.7,1.1-1.3,1.6-1.7c0.2,0,0.4,0,0.6,0
		c0.2,0,0.4,0.1,0.7,0.1s0.4,0.2,0.6,0.3c0.2,0.1,0.4,0.2,0.5,0.4c-0.2,0.2-0.6,0.8-1.2,1.8c-0.7,1-1.4,2.5-2.2,4.4
		c-0.1,0.2-0.2,0.5-0.3,0.9c-0.1,0.4-0.3,0.8-0.4,1.2c-0.1,0.4-0.2,0.8-0.3,1.2c-0.1,0.4-0.1,0.7-0.1,0.9c0,0.1,0,0.3,0.1,0.3
		s0.1,0.1,0.1,0.2c0.3-0.1,0.6-0.4,1-0.9c0.4-0.5,1-1.2,1.7-2.2c0.2-0.3,0.4-0.5,0.6-0.9c0.2-0.3,0.5-0.7,0.7-1
		c0.3-0.4,0.5-0.8,0.7-1.1c0.2-0.4,0.4-0.8,0.6-1.2c0.1-0.2,0.2-0.5,0.3-0.8c0.1-0.3,0.3-0.6,0.4-0.9s0.4-0.7,0.6-1
		c0.2-0.3,0.5-0.6,0.8-0.9c0.2,0,0.5,0,0.8,0.1c0.3,0.1,0.5,0.1,0.8,0.2c0.2,0.1,0.5,0.2,0.6,0.3c0.2,0.1,0.3,0.2,0.4,0.3
		c-0.3,0.8-0.7,1.6-1.1,2.3c-0.4,0.8-0.8,1.5-1.1,2.3c-0.3,0.7-0.6,1.5-0.9,2.2c-0.2,0.7-0.4,1.5-0.4,2.2c0,0.4,0,0.7,0.1,1
		c0.1,0.3,0.1,0.5,0.2,0.7c0.1,0.2,0.1,0.3,0.2,0.5c0.1,0.1,0.1,0.2,0.1,0.3c0,0,0,0-0.1,0.1c0,0,0,0-0.1,0c-0.1,0-0.3,0-0.5-0.1
		c-0.2-0.1-0.4-0.1-0.7-0.2c-0.2-0.1-0.5-0.2-0.7-0.3C30.9,25.3,30.7,25.2,30.5,25z"/>
	<path class="st0" d="M36.4,23.8c0-0.2,0-0.4,0-0.6s0.1-0.6,0.1-1c0.1-0.4,0.2-0.9,0.3-1.5c0.1-0.6,0.3-1.3,0.4-2.1
		c0-0.2,0.1-0.5,0.2-0.9c0.1-0.4,0.3-0.8,0.5-1.3c0.2-0.4,0.5-0.9,0.8-1.3s0.7-0.7,1.1-0.9c0.3,0.1,0.7,0.3,1.2,0.6
		c0.5,0.3,0.9,0.7,1.3,1.2c-0.4,0.5-0.8,0.9-1,1.4c-0.3,0.5-0.5,1-0.8,1.5c-0.2,0.5-0.4,1-0.6,1.6s-0.4,1.1-0.6,1.7
		c-0.2,0.5-0.4,1-0.5,1.6c-0.2,0.5-0.3,1-0.3,1.4c0,0.3,0,0.6,0,0.7c0,0.1-0.1,0.2-0.1,0.2c-0.1,0-0.2,0-0.4-0.1
		c-0.2-0.1-0.4-0.2-0.7-0.4c-0.2-0.2-0.4-0.4-0.6-0.7C36.4,24.5,36.4,24.2,36.4,23.8z M41.5,12.1c0-0.1,0-0.3,0.1-0.5
		c-0.1-0.1-0.2-0.2-0.2-0.4c-0.1-0.2-0.1-0.3-0.1-0.5c0-0.2,0-0.4,0.1-0.7c0-0.3,0.1-0.6,0.2-0.9c0.1-0.3,0.2-0.7,0.3-1
		c0.1-0.4,0.2-0.7,0.3-1c0.2,0,0.5,0.1,0.8,0.2c0.3,0.1,0.6,0.3,1,0.5c0.3,0.2,0.6,0.4,0.9,0.6c0.3,0.2,0.5,0.4,0.6,0.6
		c-0.2,0.2-0.5,0.5-0.8,0.8c-0.3,0.4-0.6,0.7-0.9,1.1c-0.3,0.4-0.6,0.8-0.8,1.1c-0.3,0.3-0.4,0.6-0.5,0.7c-0.2,0-0.4-0.1-0.6-0.3
		S41.5,12.2,41.5,12.1z"/>
	<path class="st0" d="M42.7,23.9c0-0.8,0.2-1.9,0.6-3.3c0.4-1.4,0.9-3.1,1.6-5C46,12.5,47,10,48,7.9c1-2,1.9-3.6,2.9-4.7
		c0.2,0,0.5,0.1,0.8,0.3c0.3,0.1,0.6,0.3,0.9,0.5c0.3,0.2,0.6,0.3,0.8,0.5c0.2,0.2,0.4,0.3,0.5,0.4c-1.4,1.7-2.6,3.4-3.7,5.3
		c-1.1,1.9-2,4.1-2.9,6.6c-0.8,2.1-1.3,4-1.7,5.7c-0.4,1.7-0.6,3.1-0.6,4.3c0,0.3,0,0.5,0,0.6s0,0.1,0,0.2c-0.3,0-0.5-0.1-0.6-0.2
		c-0.2-0.1-0.3-0.2-0.4-0.3c0-0.1-0.1-0.2-0.3-0.4c-0.2-0.2-0.3-0.3-0.4-0.4c-0.2-0.1-0.3-0.4-0.4-0.8S42.7,24.5,42.7,23.9z"/>
	<path class="st0" d="M49,23.9c0-0.8,0.2-1.9,0.6-3.3c0.4-1.4,0.9-3.1,1.6-5c1.1-3,2.2-5.6,3.1-7.6c1-2,1.9-3.6,2.9-4.7
		c0.2,0,0.5,0.1,0.8,0.3c0.3,0.1,0.6,0.3,0.9,0.5c0.3,0.2,0.6,0.3,0.8,0.5c0.2,0.2,0.4,0.3,0.5,0.4c-1.4,1.7-2.6,3.4-3.7,5.3
		c-1.1,1.9-2,4.1-2.9,6.6c-0.8,2.1-1.3,4-1.7,5.7c-0.4,1.7-0.6,3.1-0.6,4.3c0,0.3,0,0.5,0,0.6s0,0.1,0,0.2c-0.3,0-0.5-0.1-0.6-0.2
		c-0.2-0.1-0.3-0.2-0.4-0.3c0-0.1-0.1-0.2-0.3-0.4c-0.2-0.2-0.3-0.3-0.4-0.4c-0.2-0.1-0.3-0.4-0.4-0.8S49,24.5,49,23.9z"/>
	<path class="st0" d="M64.7,14.7c0.2,0,0.4,0,0.6,0.1c0.2,0.1,0.5,0.1,0.7,0.2c0.2,0.1,0.4,0.2,0.5,0.3s0.2,0.2,0.2,0.3
		c-0.4,0.8-0.7,1.5-1,2.3c-0.3,0.8-0.6,1.5-0.8,2.2c-0.2,0.7-0.4,1.4-0.5,2c-0.1,0.6-0.2,1.1-0.2,1.6c0,0.5,0.1,0.9,0.2,1.3
		c0.1,0.3,0.3,0.6,0.5,0.7c-0.2,0.1-0.5,0.3-0.8,0.4s-0.6,0.1-0.9,0.1c-1,0-1.5-0.7-1.5-2c0-1,0.3-2.4,1-4.2
		c-0.4,0.8-0.8,1.6-1.2,2.3C61,23,60.5,23.6,60,24.2c-0.5,0.6-1,1-1.5,1.4c-0.5,0.3-0.9,0.6-1.4,0.6c-0.7,0-1.2-0.3-1.6-0.9
		S55,23.9,55,23c0-1,0.2-2.1,0.6-3.2c0.4-1.1,1-2.2,1.7-3.1c0.7-1,1.4-1.8,2.2-2.4c0.8-0.6,1.6-1,2.3-1c0.2,0.1,0.4,0.2,0.6,0.3
		c0.2,0.2,0.4,0.4,0.6,0.6c0.2,0.2,0.4,0.4,0.5,0.7c0.1,0.2,0.2,0.4,0.2,0.6c-0.7,0.1-1.5,0.5-2.2,1.1s-1.5,1.3-2.1,2.1
		c-0.6,0.8-1.1,1.7-1.5,2.7c-0.4,1-0.6,1.8-0.6,2.7c0,0.3,0.1,0.6,0.4,0.6c0.5-0.1,1.1-0.6,1.8-1.3c0.7-0.8,1.5-2,2.5-3.6
		c0.2-0.3,0.4-0.7,0.6-1.1c0.2-0.4,0.5-0.8,0.7-1.2c0.2-0.4,0.5-0.9,0.7-1.3S64.5,15.1,64.7,14.7z"/>
	<path class="st0" d="M75.3,25c-0.3-0.3-0.6-0.6-0.7-1.1s-0.2-0.8-0.2-1.1c0-0.4,0-0.7,0.1-1c-0.1,0-0.2,0.1-0.5,0.4
		c-0.3,0.3-0.5,0.6-0.8,1c-0.3,0.4-0.6,0.8-0.9,1.2s-0.5,0.7-0.6,0.8c-0.2,0.3-0.5,0.4-0.7,0.6s-0.4,0.2-0.5,0.2
		c-0.3,0-0.6,0-0.9-0.1s-0.6-0.2-0.9-0.4c-0.3-0.2-0.5-0.4-0.7-0.7s-0.3-0.5-0.4-0.9c0-0.5,0-0.9,0-1.2s0.1-0.7,0.2-1.1
		c0.2-0.7,0.4-1.5,0.7-2.3c0.3-0.9,0.7-1.7,1.1-2.6s0.9-1.6,1.4-2.3c0.5-0.7,1.1-1.3,1.6-1.7c0.2,0,0.4,0,0.6,0
		c0.2,0,0.4,0.1,0.7,0.1s0.4,0.2,0.6,0.3c0.2,0.1,0.4,0.2,0.5,0.4c-0.2,0.2-0.6,0.8-1.2,1.8c-0.7,1-1.4,2.5-2.2,4.4
		c-0.1,0.2-0.2,0.5-0.3,0.9c-0.1,0.4-0.3,0.8-0.4,1.2c-0.1,0.4-0.2,0.8-0.3,1.2c-0.1,0.4-0.1,0.7-0.1,0.9c0,0.1,0,0.3,0.1,0.3
		s0.1,0.1,0.1,0.2c0.3-0.1,0.6-0.4,1-0.9c0.4-0.5,1-1.2,1.7-2.2c0.2-0.3,0.4-0.5,0.6-0.9c0.2-0.3,0.5-0.7,0.7-1
		c0.3-0.4,0.5-0.8,0.7-1.1c0.2-0.4,0.4-0.8,0.6-1.2c0.1-0.2,0.2-0.5,0.3-0.8c0.1-0.3,0.3-0.6,0.4-0.9s0.4-0.7,0.6-1
		c0.2-0.3,0.5-0.6,0.8-0.9c0.2,0,0.5,0,0.8,0.1c0.3,0.1,0.5,0.1,0.8,0.2c0.2,0.1,0.5,0.2,0.6,0.3c0.2,0.1,0.3,0.2,0.4,0.3
		c-0.3,0.8-0.7,1.6-1.1,2.3c-0.4,0.8-0.8,1.5-1.1,2.3c-0.3,0.7-0.6,1.5-0.9,2.2c-0.2,0.7-0.4,1.5-0.4,2.2c0,0.4,0,0.7,0.1,1
		c0.1,0.3,0.1,0.5,0.2,0.7c0.1,0.2,0.1,0.3,0.2,0.5c0.1,0.1,0.1,0.2,0.1,0.3c0,0,0,0-0.1,0.1c0,0,0,0-0.1,0c-0.1,0-0.3,0-0.5-0.1
		c-0.2-0.1-0.4-0.1-0.7-0.2c-0.2-0.1-0.5-0.2-0.7-0.3C75.7,25.3,75.5,25.2,75.3,25z"/>
	<path class="st0" d="M96.8,17.3c-0.3,0-0.6,0.2-1.1,0.5s-0.9,0.8-1.3,1.4c-0.5,0.5-1,1.2-1.5,1.8c-0.5,0.7-1,1.3-1.5,2
		c-0.5,0.7-0.9,1.3-1.3,1.9s-0.8,1-1.1,1.4c-0.4-0.2-0.7-0.4-1-0.7c-0.3-0.3-0.5-0.7-0.6-1.2c0.1-0.6,0.2-1.1,0.4-1.7
		c0.2-0.6,0.4-1.2,0.6-1.9c0.3-0.6,0.6-1.3,1-2c0.4-0.7,0.9-1.5,1.4-2.3c-0.3,0-0.6,0.2-1.1,0.6c-0.5,0.4-1,0.8-1.5,1.4
		c-0.5,0.6-1.1,1.2-1.7,2c-0.6,0.7-1.1,1.4-1.6,2.1c-0.7,0.9-1.2,1.8-1.7,2.5c-0.4,0.7-0.8,1.1-1,1.2c-0.5-0.3-0.8-0.7-1-1.1
		c-0.2-0.4-0.3-0.8-0.4-1.3c0-0.4,0.1-1,0.2-1.6c0.1-0.6,0.3-1.3,0.5-2c0.4-1.3,0.9-2.6,1.6-3.9s1.3-2.5,1.9-3.6
		c0.5,0.1,1,0.3,1.4,0.5c0.4,0.2,0.8,0.6,1.3,1c-0.2,0.6-0.5,1.1-0.8,1.8c-0.4,0.6-0.8,1.3-1.2,2c-0.4,0.7-0.8,1.4-1.1,2.1
		c-0.3,0.7-0.6,1.4-0.7,2.2c0.5-0.7,1.1-1.5,1.8-2.5c0.7-0.9,1.4-1.8,2.1-2.6s1.5-1.5,2.2-2.1c0.7-0.6,1.4-0.9,1.9-0.9
		c0.2,0,0.4,0,0.7,0.1c0.3,0.1,0.5,0.2,0.7,0.3c0.2,0.1,0.4,0.2,0.5,0.3s0.2,0.2,0.2,0.2c-0.1,0.4-0.3,0.9-0.6,1.5s-0.7,1.3-1.1,2
		c-0.4,0.7-0.7,1.3-1.1,2c-0.3,0.6-0.5,1.1-0.6,1.5c0.9-1.2,1.7-2.3,2.5-3.3c0.8-1,1.5-1.8,2.2-2.5c0.7-0.7,1.3-1.2,1.9-1.6
		c0.6-0.4,1.1-0.6,1.7-0.6c0.4,0,0.7,0.1,1,0.3c0.3,0.2,0.5,0.5,0.7,0.8c-0.2,0.5-0.4,1.2-0.8,1.9c-0.4,0.8-0.7,1.6-1.1,2.4
		s-0.7,1.7-1,2.5c-0.3,0.8-0.4,1.5-0.4,2.2c0,0.4,0.1,0.6,0.2,0.7c0.1,0.1,0.3,0.2,0.5,0.2c0.2,0,0.4,0,0.6-0.1
		c0.2-0.1,0.3-0.1,0.4-0.1c0.1,0.1,0.2,0.2,0.2,0.3c0,0.1,0,0.2,0,0.3c-0.4,0.3-0.7,0.5-1.1,0.7c-0.4,0.2-0.8,0.3-1.3,0.3
		c-0.4,0-0.8-0.1-1.1-0.2c-0.3-0.1-0.5-0.3-0.7-0.6c-0.2-0.3-0.3-0.5-0.4-0.9c-0.1-0.3-0.1-0.7-0.1-1.1c0-0.6,0.1-1.2,0.2-1.8
		c0.2-0.6,0.4-1.2,0.6-1.7c0.2-0.5,0.5-1.1,0.7-1.5C96.4,18.1,96.6,17.7,96.8,17.3z"/>
	<path class="st0" d="M111.5,14.4c-0.1,1.1-0.3,2.1-0.6,2.9c-0.3,0.8-0.8,1.5-1.4,2.1c-0.6,0.6-1.3,1.1-2.2,1.6
		c-0.9,0.5-1.9,1-3,1.4c0,0.1,0,0.2,0,0.3c0,0.1,0,0.2,0,0.4c0,0.2,0,0.5,0.1,0.7c0,0.3,0.1,0.5,0.2,0.7c0.1,0.2,0.2,0.4,0.4,0.5
		s0.4,0.2,0.6,0.2c0.5,0,1-0.1,1.4-0.3c0.5-0.2,0.9-0.5,1.3-0.8c0.4-0.3,0.8-0.7,1.2-1c0.4-0.4,0.7-0.7,1-1c0.2,0.2,0.3,0.3,0.5,0.5
		c-0.8,1.1-1.7,2-2.7,2.7s-1.9,1.2-2.7,1.4c-1.2-0.1-2.2-0.6-2.9-1.4c-0.7-0.8-1-1.7-1-2.8c0-0.7,0.1-1.5,0.3-2.3
		c0.2-0.8,0.5-1.5,0.9-2.2c0.4-0.7,0.8-1.4,1.3-2s1-1.2,1.6-1.6c0.6-0.5,1.2-0.8,1.8-1.1c0.6-0.3,1.2-0.4,1.8-0.4
		C110,13,110.8,13.5,111.5,14.4z M109.6,15.3c-0.5,0.1-1,0.3-1.5,0.6c-0.5,0.3-1,0.8-1.5,1.3s-0.9,1.2-1.3,1.9
		c-0.4,0.7-0.7,1.5-0.9,2.3c1.4-0.7,2.6-1.6,3.6-2.7C109,17.7,109.5,16.6,109.6,15.3z"/>
	<path class="st0" d="M136.9,7.4c0.1,0.3,0.1,0.5,0.1,0.6c0,0.1,0,0.3,0,0.5c0,0.6-0.1,1.1-0.4,1.7c-0.3,0.5-0.6,0.9-1.1,1.1
		c-0.4-0.5-0.8-0.9-1.3-1.3c-0.5-0.4-1.1-0.6-1.7-0.9s-1.3-0.4-1.9-0.5c-0.7-0.1-1.3-0.2-1.9-0.2c-0.6,0-1.2,0-1.8,0.1
		c-0.5,0.1-1,0.2-1.5,0.4c-0.4,0.2-0.8,0.4-1,0.6c-0.2,0.3-0.4,0.5-0.4,0.9c0.1,0.4,0.3,0.8,0.7,1.2c0.4,0.4,1,0.8,1.6,1.2
		c0.6,0.4,1.3,0.8,2.1,1.1c0.8,0.4,1.5,0.7,2.3,1.1c0.9,0.4,1.7,0.8,2.4,1.2s1.2,0.8,1.6,1.2c0.4,0.4,0.8,0.9,1,1.5
		c0.2,0.6,0.3,1.2,0.3,2c0,0.9-0.2,1.8-0.5,2.6c-0.3,0.8-0.8,1.5-1.3,2.1c-0.6,0.6-1.3,1.1-2.1,1.4c-0.8,0.3-1.8,0.5-2.8,0.5
		c-1,0-2.1-0.2-3.3-0.5c-1.2-0.3-2.3-0.7-3.3-1.3c-1-0.5-1.9-1.1-2.5-1.8s-1-1.4-1-2.2c0-0.4,0.1-0.8,0.3-1.4
		c0.2-0.6,0.6-1.1,1.1-1.8c0.1,0.5,0.3,1.2,0.9,1.9c0.5,0.7,1.3,1.4,2.4,2.1c1,0.6,2,1,3.1,1.3c1.1,0.3,2,0.4,3,0.4
		c1,0,1.8-0.1,2.5-0.4c0.6-0.3,1.1-0.6,1.5-0.9c0.4-0.4,0.6-0.7,0.8-1.1s0.2-0.6,0.2-0.9c0-0.4-0.2-0.7-0.5-1
		c-0.3-0.3-0.7-0.7-1.3-1c-0.5-0.3-1.1-0.6-1.8-1c-0.7-0.3-1.4-0.6-2.2-1c-1.1-0.5-2.1-1-2.9-1.4c-0.8-0.4-1.5-0.9-2-1.4
		c-0.5-0.5-0.9-0.9-1.2-1.4c-0.2-0.5-0.4-1.1-0.4-1.7c0-1,0.3-2,0.9-2.9c0.6-0.9,1.5-1.6,2.6-2.1c0.6-0.3,1.2-0.4,1.8-0.5
		s1.3-0.2,1.9-0.2c1.2,0,2.3,0.2,3.5,0.5C134.6,6.5,135.7,6.9,136.9,7.4z"/>
	<path class="st0" d="M147.4,14.7c0.2,0,0.4,0,0.6,0.1c0.2,0.1,0.5,0.1,0.7,0.2c0.2,0.1,0.4,0.2,0.5,0.3s0.2,0.2,0.2,0.3
		c-0.4,0.8-0.7,1.5-1,2.3c-0.3,0.8-0.6,1.5-0.8,2.2s-0.4,1.4-0.5,2c-0.1,0.6-0.2,1.1-0.2,1.6c0,0.5,0.1,0.9,0.2,1.3
		c0.1,0.3,0.3,0.6,0.5,0.7c-0.2,0.1-0.5,0.3-0.8,0.4s-0.6,0.1-0.9,0.1c-1,0-1.5-0.7-1.5-2c0-1,0.3-2.4,1-4.2
		c-0.4,0.8-0.8,1.6-1.2,2.3c-0.5,0.7-0.9,1.4-1.4,1.9c-0.5,0.6-1,1-1.5,1.4c-0.5,0.3-0.9,0.6-1.4,0.6c-0.7,0-1.2-0.3-1.6-0.9
		c-0.4-0.6-0.6-1.4-0.6-2.3c0-1,0.2-2.1,0.6-3.2c0.4-1.1,1-2.2,1.7-3.1c0.7-1,1.4-1.8,2.2-2.4c0.8-0.6,1.6-1,2.3-1
		c0.2,0.1,0.4,0.2,0.6,0.3c0.2,0.2,0.4,0.4,0.6,0.6c0.2,0.2,0.4,0.4,0.5,0.7c0.1,0.2,0.2,0.4,0.2,0.6c-0.7,0.1-1.5,0.5-2.2,1.1
		c-0.8,0.6-1.5,1.3-2.1,2.1s-1.1,1.7-1.5,2.7c-0.4,1-0.6,1.8-0.6,2.7c0,0.3,0.1,0.6,0.4,0.6c0.5-0.1,1.1-0.6,1.8-1.3
		c0.7-0.8,1.5-2,2.5-3.6c0.2-0.3,0.4-0.7,0.6-1.1c0.2-0.4,0.5-0.8,0.7-1.2c0.2-0.4,0.5-0.9,0.7-1.3C147,15.5,147.2,15.1,147.4,14.7z
		"/>
	<path class="st0" d="M150.7,23.8c0-0.2,0-0.4,0-0.6s0.1-0.6,0.1-1c0.1-0.4,0.2-0.9,0.3-1.5s0.3-1.3,0.4-2.1c0-0.2,0.1-0.5,0.2-0.9
		c0.1-0.4,0.3-0.8,0.5-1.3c0.2-0.4,0.5-0.9,0.8-1.3s0.7-0.7,1.1-0.9c0.3,0.1,0.7,0.3,1.2,0.6s0.9,0.7,1.3,1.2
		c-0.4,0.5-0.8,0.9-1,1.4c-0.3,0.5-0.5,1-0.8,1.5c-0.2,0.5-0.4,1-0.6,1.6c-0.2,0.5-0.4,1.1-0.6,1.7c-0.2,0.5-0.4,1-0.5,1.6
		s-0.3,1-0.3,1.4c0,0.3,0,0.6,0,0.7c0,0.1-0.1,0.2-0.1,0.2c-0.1,0-0.2,0-0.4-0.1c-0.2-0.1-0.4-0.2-0.7-0.4c-0.2-0.2-0.4-0.4-0.6-0.7
		C150.8,24.5,150.7,24.2,150.7,23.8z M155.9,12.1c0-0.1,0-0.3,0.1-0.5c-0.1-0.1-0.2-0.2-0.2-0.4c-0.1-0.2-0.1-0.3-0.1-0.5
		c0-0.2,0-0.4,0.1-0.7c0-0.3,0.1-0.6,0.2-0.9s0.2-0.7,0.3-1c0.1-0.4,0.2-0.7,0.3-1c0.2,0,0.5,0.1,0.8,0.2c0.3,0.1,0.6,0.3,1,0.5
		c0.3,0.2,0.6,0.4,0.9,0.6c0.3,0.2,0.5,0.4,0.6,0.6c-0.2,0.2-0.5,0.5-0.8,0.8c-0.3,0.4-0.6,0.7-0.9,1.1c-0.3,0.4-0.6,0.8-0.8,1.1
		s-0.4,0.6-0.5,0.7c-0.2,0-0.4-0.1-0.6-0.3S155.9,12.2,155.9,12.1z"/>
	<path class="st0" d="M161.4,12.5c0.5,0.1,0.9,0.5,1.3,1c0.4,0.5,0.7,1,0.9,1.6c-0.2,0.5-0.5,1.1-0.9,1.8c-0.4,0.7-0.8,1.4-1.2,2.1
		s-0.8,1.4-1.1,2c-0.3,0.6-0.5,1.2-0.6,1.6c0.3-0.3,0.6-0.7,1-1.1c0.4-0.4,0.7-0.8,1-1.2c0.3-0.4,0.6-0.8,0.9-1.1
		c0.3-0.3,0.5-0.6,0.7-0.7c0.3-0.4,0.7-0.8,1.2-1.3c0.5-0.5,1-0.9,1.5-1.3c0.5-0.4,1-0.8,1.6-1.1c0.5-0.3,1-0.4,1.4-0.4
		c0.5,0,0.9,0.2,1.2,0.5c0.3,0.3,0.6,0.6,0.7,1c0,0-0.1,0.1-0.2,0.1s-0.3,0.2-0.6,0.5c-0.3,0.3-0.5,0.8-0.8,1.3
		c-0.3,0.6-0.6,1.2-0.9,1.8c-0.3,0.7-0.5,1.3-0.7,2c-0.2,0.7-0.3,1.3-0.3,1.9c0,0.5,0.1,0.7,0.2,0.9s0.3,0.2,0.5,0.2
		c0.2,0,0.4,0,0.6-0.1c0.2-0.1,0.4-0.1,0.5-0.1c0.1,0,0.1,0.1,0.2,0.2s0.1,0.2,0.1,0.3c-0.1,0.1-0.3,0.3-0.5,0.4
		c-0.2,0.1-0.4,0.2-0.6,0.4c-0.2,0.1-0.4,0.2-0.6,0.3c-0.2,0.1-0.4,0.1-0.6,0.1c-0.5,0-0.9-0.1-1.3-0.2c-0.3-0.2-0.6-0.4-0.8-0.6
		c-0.2-0.3-0.3-0.6-0.4-0.9c-0.1-0.4-0.1-0.7-0.1-1.1c0-0.2,0-0.5,0.1-0.7c0-0.3,0.1-0.6,0.2-1s0.3-0.8,0.5-1.3
		c0.2-0.5,0.4-1.1,0.8-1.8c0,0-0.3,0.1-0.7,0.4c-0.5,0.3-0.9,0.6-1.5,1.2c-0.8,0.8-1.6,1.6-2.3,2.4c-0.7,0.8-1.4,1.7-2.1,2.6
		c-0.4,0.6-0.7,1-1,1.4c-0.3,0.4-0.6,0.6-0.8,0.8c-0.4-0.2-0.7-0.5-0.8-0.9c-0.2-0.4-0.3-0.8-0.4-1.2c0-0.3,0-0.8,0.1-1.3
		c0.1-0.5,0.2-1.1,0.4-1.7c0.2-0.6,0.4-1.3,0.6-2s0.5-1.4,0.8-2.1c0.7-1.6,1.3-2.8,1.9-3.7C160.9,13.1,161.3,12.6,161.4,12.5z"/>
	<path class="st0" d="M173.2,15.3c-0.1-0.1-0.2-0.3-0.2-0.7s-0.1-0.7-0.1-0.9c0.5,0.1,0.9,0.1,1.3,0.1s0.8,0,1.2,0
		c0.3-0.5,0.6-1.1,0.9-1.6c0.3-0.5,0.6-1,0.9-1.4s0.6-0.8,0.8-1.1c0.3-0.3,0.5-0.5,0.6-0.6c0.2,0,0.4,0,0.7,0.1s0.6,0.1,0.8,0.2
		c0.3,0.1,0.5,0.2,0.8,0.3c0.2,0.1,0.4,0.2,0.5,0.3c-0.5,0.7-1,1.3-1.4,1.9s-0.8,1.2-1.3,2c0.4,0,0.7,0,1.1,0s0.7,0,1.1-0.1
		c0.1,0.1,0.2,0.2,0.2,0.3c0.1,0.1,0.1,0.3,0.1,0.4c-0.9,0.3-2,0.5-3.2,0.5c-0.5,0.9-0.9,1.7-1.2,2.6c-0.4,0.9-0.6,1.7-0.9,2.5
		c-0.2,0.8-0.4,1.5-0.6,2.2c-0.1,0.7-0.2,1.3-0.2,1.9c0,0.8,0.3,1.2,0.9,1.3c0.5-0.1,1.1-0.2,1.5-0.4c0.5-0.2,0.9-0.4,1.3-0.8
		c0.1,0.2,0.2,0.3,0.2,0.4c-0.1,0.2-0.3,0.3-0.6,0.6c-0.3,0.2-0.5,0.4-0.9,0.6c-0.3,0.2-0.6,0.4-0.9,0.5c-0.3,0.1-0.5,0.2-0.6,0.2
		c-0.4,0-0.9-0.1-1.3-0.3c-0.4-0.2-0.9-0.4-1.2-0.7c-0.4-0.3-0.7-0.6-0.9-0.9s-0.4-0.7-0.4-1c0-0.4,0.1-1,0.2-1.6
		c0.1-0.7,0.3-1.4,0.5-2.1c0.2-0.8,0.5-1.6,0.8-2.4c0.3-0.8,0.6-1.7,0.9-2.5H173.2z"/>
	<path class="st0" d="M181.1,25.2c0-0.6,0.1-1.4,0.2-2.2c0.1-0.9,0.3-1.8,0.6-2.7c0.2-1,0.5-2,0.9-3.1c0.3-1.1,0.7-2.1,1.1-3.2
		c0.4-1,0.8-1.9,1.3-2.9s1-1.9,1.6-2.9c0.6-0.9,1.1-1.8,1.7-2.7c0.6-0.8,1.2-1.6,1.8-2.3c0.3,0,0.6,0,0.9,0.1c0.3,0.1,0.7,0.2,1,0.3
		c0.3,0.1,0.6,0.3,0.9,0.4c0.3,0.2,0.5,0.3,0.6,0.5c-1.3,1.4-2.6,2.8-3.6,4.2s-1.9,2.7-2.6,4c-0.3,0.7-0.7,1.3-0.9,1.9
		s-0.5,1.2-0.8,1.8c-0.2,0.6-0.4,1.2-0.6,1.8c-0.2,0.6-0.4,1.2-0.5,1.8c3.5-4.4,6-6.6,7.7-6.6c0.5,0,1,0.2,1.5,0.5
		c0.5,0.3,1,0.7,1.4,1.2c-0.6,0.6-1.1,1.3-1.7,2.2s-1.1,1.7-1.6,2.6c-0.5,0.9-0.9,1.7-1.2,2.4c-0.3,0.7-0.5,1.3-0.5,1.7
		c0,0.2,0,0.3,0.1,0.4c0.1,0.1,0.2,0.1,0.4,0.1c0.3,0,0.5,0,0.6-0.1c0.2-0.1,0.3-0.1,0.3-0.1c0.1,0.1,0.1,0.2,0.2,0.3
		c0,0.1,0,0.1,0,0.1c0,0.1-0.1,0.2-0.3,0.3c-0.2,0.1-0.5,0.3-0.8,0.4c-0.3,0.1-0.6,0.3-0.9,0.4c-0.3,0.1-0.5,0.2-0.6,0.2
		c-0.2,0-0.4,0-0.5-0.1c-0.2-0.1-0.3-0.2-0.5-0.4s-0.2-0.3-0.3-0.5c-0.1-0.2-0.1-0.4-0.1-0.6c0-0.3,0.1-0.7,0.2-1.2
		c0.2-0.5,0.4-1.2,0.6-1.9c0.3-0.7,0.6-1.5,1-2.3c0.4-0.8,0.8-1.7,1.2-2.6c0-0.1,0-0.1-0.1-0.1c-0.1,0-0.2,0.1-0.4,0.2
		c-0.2,0.1-0.4,0.3-0.6,0.4c-0.6,0.5-1.3,1.1-2,1.8c-0.7,0.7-1.3,1.5-1.9,2.3c-0.6,0.8-1.2,1.7-1.8,2.7s-1,1.9-1.4,2.8
		c-0.1,0.1-0.1,0.2-0.2,0.4c-0.1,0.1-0.2,0.2-0.3,0.2c-0.1,0-0.1-0.1-0.2-0.2c-0.1-0.1-0.2-0.3-0.3-0.5c-0.1-0.2-0.2-0.4-0.2-0.6
		C181.1,25.5,181.1,25.3,181.1,25.2z"/>
	<path class="st0" d="M195.1,23.8c0-0.2,0-0.4,0-0.6s0.1-0.6,0.1-1c0.1-0.4,0.2-0.9,0.3-1.5s0.3-1.3,0.4-2.1c0-0.2,0.1-0.5,0.2-0.9
		c0.1-0.4,0.3-0.8,0.5-1.3c0.2-0.4,0.5-0.9,0.8-1.3s0.7-0.7,1.1-0.9c0.3,0.1,0.7,0.3,1.2,0.6s0.9,0.7,1.3,1.2
		c-0.4,0.5-0.8,0.9-1,1.4c-0.3,0.5-0.5,1-0.8,1.5c-0.2,0.5-0.4,1-0.6,1.6c-0.2,0.5-0.4,1.1-0.6,1.7c-0.2,0.5-0.4,1-0.5,1.6
		s-0.3,1-0.3,1.4c0,0.3,0,0.6,0,0.7c0,0.1-0.1,0.2-0.1,0.2c-0.1,0-0.2,0-0.4-0.1c-0.2-0.1-0.4-0.2-0.7-0.4c-0.2-0.2-0.4-0.4-0.6-0.7
		C195.2,24.5,195.1,24.2,195.1,23.8z M200.3,12.1c0-0.1,0-0.3,0.1-0.5c-0.1-0.1-0.2-0.2-0.2-0.4c-0.1-0.2-0.1-0.3-0.1-0.5
		c0-0.2,0-0.4,0.1-0.7c0-0.3,0.1-0.6,0.2-0.9s0.2-0.7,0.3-1c0.1-0.4,0.2-0.7,0.3-1c0.2,0,0.5,0.1,0.8,0.2c0.3,0.1,0.6,0.3,1,0.5
		c0.3,0.2,0.6,0.4,0.9,0.6c0.3,0.2,0.5,0.4,0.6,0.6c-0.2,0.2-0.5,0.5-0.8,0.8c-0.3,0.4-0.6,0.7-0.9,1.1c-0.3,0.4-0.6,0.8-0.8,1.1
		s-0.4,0.6-0.5,0.7c-0.2,0-0.4-0.1-0.6-0.3S200.3,12.2,200.3,12.1z"/>
	<path class="st0" d="M201.4,23.9c0-0.8,0.2-1.9,0.6-3.3c0.4-1.4,0.9-3.1,1.6-5c1.1-3,2.2-5.6,3.1-7.6c1-2,1.9-3.6,2.9-4.7
		c0.2,0,0.5,0.1,0.8,0.3c0.3,0.1,0.6,0.3,0.9,0.5s0.6,0.3,0.8,0.5c0.2,0.2,0.4,0.3,0.5,0.4c-1.4,1.7-2.6,3.4-3.7,5.3
		c-1.1,1.9-2,4.1-2.9,6.6c-0.8,2.1-1.3,4-1.7,5.7s-0.6,3.1-0.6,4.3c0,0.3,0,0.5,0,0.6s0,0.1,0,0.2c-0.3,0-0.5-0.1-0.6-0.2
		s-0.3-0.2-0.4-0.3c0-0.1-0.1-0.2-0.3-0.4s-0.3-0.3-0.4-0.4c-0.2-0.1-0.3-0.4-0.4-0.8S201.4,24.5,201.4,23.9z"/>
	<path class="st0" d="M207.8,23.9c0-0.8,0.2-1.9,0.6-3.3c0.4-1.4,0.9-3.1,1.6-5c1.1-3,2.2-5.6,3.1-7.6c1-2,1.9-3.6,2.9-4.7
		c0.2,0,0.5,0.1,0.8,0.3c0.3,0.1,0.6,0.3,0.9,0.5c0.3,0.2,0.6,0.3,0.8,0.5c0.2,0.2,0.4,0.3,0.5,0.4c-1.4,1.7-2.6,3.4-3.7,5.3
		c-1.1,1.9-2,4.1-2.9,6.6c-0.8,2.1-1.3,4-1.7,5.7c-0.4,1.7-0.6,3.1-0.6,4.3c0,0.3,0,0.5,0,0.6s0,0.1,0,0.2c-0.3,0-0.5-0.1-0.6-0.2
		c-0.2-0.1-0.3-0.2-0.4-0.3c0-0.1-0.1-0.2-0.3-0.4s-0.3-0.3-0.4-0.4c-0.2-0.1-0.3-0.4-0.4-0.8C207.9,25,207.8,24.5,207.8,23.9z"/>
	<path class="st0" d="M214.2,23.8c0-0.2,0-0.4,0-0.6s0.1-0.6,0.1-1c0.1-0.4,0.2-0.9,0.3-1.5s0.3-1.3,0.4-2.1c0-0.2,0.1-0.5,0.2-0.9
		c0.1-0.4,0.3-0.8,0.5-1.3c0.2-0.4,0.5-0.9,0.8-1.3s0.7-0.7,1.1-0.9c0.3,0.1,0.7,0.3,1.2,0.6s0.9,0.7,1.3,1.2
		c-0.4,0.5-0.8,0.9-1,1.4c-0.3,0.5-0.5,1-0.8,1.5c-0.2,0.5-0.4,1-0.6,1.6c-0.2,0.5-0.4,1.1-0.6,1.7c-0.2,0.5-0.4,1-0.5,1.6
		s-0.3,1-0.3,1.4c0,0.3,0,0.6,0,0.7c0,0.1-0.1,0.2-0.1,0.2c-0.1,0-0.2,0-0.4-0.1c-0.2-0.1-0.4-0.2-0.7-0.4c-0.2-0.2-0.4-0.4-0.6-0.7
		C214.3,24.5,214.2,24.2,214.2,23.8z M219.4,12.1c0-0.1,0-0.3,0.1-0.5c-0.1-0.1-0.2-0.2-0.2-0.4c-0.1-0.2-0.1-0.3-0.1-0.5
		c0-0.2,0-0.4,0.1-0.7c0-0.3,0.1-0.6,0.2-0.9s0.2-0.7,0.3-1c0.1-0.4,0.2-0.7,0.3-1c0.2,0,0.5,0.1,0.8,0.2c0.3,0.1,0.6,0.3,1,0.5
		c0.3,0.2,0.6,0.4,0.9,0.6c0.3,0.2,0.5,0.4,0.6,0.6c-0.2,0.2-0.5,0.5-0.8,0.8c-0.3,0.4-0.6,0.7-0.9,1.1c-0.3,0.4-0.6,0.8-0.8,1.1
		s-0.4,0.6-0.5,0.7c-0.2,0-0.4-0.1-0.6-0.3S219.4,12.2,219.4,12.1z"/>
	<path class="st0" d="M230.2,14.4c-0.1,1.1-0.3,2.1-0.6,2.9c-0.3,0.8-0.8,1.5-1.4,2.1c-0.6,0.6-1.3,1.1-2.2,1.6
		c-0.9,0.5-1.9,1-3,1.4c0,0.1,0,0.2,0,0.3c0,0.1,0,0.2,0,0.4c0,0.2,0,0.5,0.1,0.7c0,0.3,0.1,0.5,0.2,0.7c0.1,0.2,0.2,0.4,0.4,0.5
		s0.4,0.2,0.6,0.2c0.5,0,1-0.1,1.4-0.3c0.5-0.2,0.9-0.5,1.3-0.8c0.4-0.3,0.8-0.7,1.2-1c0.4-0.4,0.7-0.7,1-1c0.2,0.2,0.3,0.3,0.5,0.5
		c-0.8,1.1-1.7,2-2.7,2.7s-1.9,1.2-2.7,1.4c-1.2-0.1-2.2-0.6-2.9-1.4c-0.7-0.8-1-1.7-1-2.8c0-0.7,0.1-1.5,0.3-2.3s0.5-1.5,0.9-2.2
		s0.8-1.4,1.3-2c0.5-0.6,1-1.2,1.6-1.6c0.6-0.5,1.2-0.8,1.8-1.1c0.6-0.3,1.2-0.4,1.8-0.4C228.7,13,229.5,13.5,230.2,14.4z
		 M228.4,15.3c-0.5,0.1-1,0.3-1.5,0.6c-0.5,0.3-1,0.8-1.5,1.3s-0.9,1.2-1.3,1.9c-0.4,0.7-0.7,1.5-0.9,2.3c1.4-0.7,2.6-1.6,3.6-2.7
		C227.8,17.7,228.3,16.6,228.4,15.3z"/>
	<path class="st0" d="M230.8,25.1c0.1-0.5,0.2-1.2,0.5-2.1c0.2-0.9,0.5-1.8,0.8-2.7c0.3-1,0.6-1.9,1-2.9c0.3-1,0.7-1.8,1-2.6
		c0.2-0.6,0.4-1,0.6-1.3c0.2-0.3,0.4-0.6,0.6-0.8c0.3,0,0.5,0.1,0.8,0.2s0.5,0.2,0.8,0.3c0.3,0.1,0.5,0.3,0.7,0.4
		c0.2,0.1,0.4,0.3,0.5,0.4c-0.5,0.6-0.9,1.2-1.3,2c-0.4,0.7-0.7,1.7-1.1,2.8c1-0.9,1.8-1.7,2.6-2.5s1.4-1.7,2.1-2.6
		c0.1-0.1,0.3-0.1,0.6-0.1c0.3,0,0.5,0,0.7,0.1s0.4,0.2,0.5,0.3c-0.3,0.9-0.5,1.7-0.5,2.6c0,0.8,0.1,1.4,0.4,1.8
		c0,0.1-0.1,0.3-0.4,0.6c-0.2,0.3-0.5,0.6-0.7,0.9c-0.5-0.3-0.9-0.6-1.3-1c-0.4-0.4-0.7-0.9-0.8-1.4c-0.8,0.6-1.6,1.2-2.2,1.7
		s-1.1,1.2-1.5,1.9c-0.4,0.7-0.8,1.5-1.1,2.4c-0.3,0.9-0.6,2-0.9,3.2c-0.2,0-0.4-0.1-0.6-0.2c-0.2-0.1-0.4-0.2-0.7-0.4
		c-0.2-0.1-0.4-0.3-0.6-0.5C231,25.4,230.9,25.2,230.8,25.1z"/>
</g>
</svg>
