<?xml version="1.0" standalone="no"?>
<!DOCTYPE svg PUBLIC "-//W3C//DTD SVG 20010904//EN"
 "http://www.w3.org/TR/2001/REC-SVG-20010904/DTD/svg10.dtd">
<svg version="1.0" xmlns="http://www.w3.org/2000/svg"
 width="260.000000pt" height="260.000000pt" viewBox="0 0 260.000000 260.000000"
 preserveAspectRatio="xMidYMid meet">
<metadata>
Created by potrace 1.11, written by Peter Selinger 2001-2013
</metadata>
<g transform="translate(0.000000,260.000000) scale(0.100000,-0.100000)"
fill="#000000" stroke="none">
<path d="M1182 2452 c-77 -28 -135 -81 -173 -159 -35 -70 -33 -188 3 -258 96
-185 335 -228 481 -87 65 62 91 124 91 217 1 92 -21 148 -86 216 -75 79 -209
109 -316 71z m151 -133 c73 -20 127 -109 112 -182 -9 -42 -48 -93 -86 -113
-137 -71 -288 80 -215 215 39 75 107 103 189 80z"/>
<path d="M1974 2034 c-89 -26 -156 -82 -196 -162 -35 -71 -33 -187 5 -264 30
-61 74 -105 140 -140 60 -32 192 -32 258 -1 173 83 228 309 112 461 -67 88
-214 137 -319 106z m162 -155 c80 -48 102 -166 45 -236 -52 -63 -158 -78 -222
-32 -65 46 -86 158 -41 218 57 76 142 96 218 50z"/>
<path d="M445 2006 c-147 -45 -227 -158 -220 -309 12 -252 315 -373 505 -201
67 61 94 123 94 219 1 65 -4 90 -24 130 -29 61 -90 121 -150 148 -54 24 -149
30 -205 13z m166 -153 c66 -39 93 -133 58 -203 -22 -45 -49 -69 -95 -85 -107
-37 -217 52 -209 168 9 115 143 181 246 120z"/>
<path d="M1369 1671 c-57 -57 -35 -148 42 -172 81 -25 158 57 125 135 -30 71
-114 90 -167 37z"/>
<path d="M1068 1660 c-76 -69 -5 -202 95 -176 85 21 106 140 32 186 -43 26
-92 23 -127 -10z"/>
<path d="M1554 1433 c-57 -28 -75 -106 -36 -159 16 -22 44 -35 85 -39 30 -3
81 38 93 75 28 84 -62 161 -142 123z"/>
<path d="M942 1410 c-21 -13 -35 -31 -38 -50 -12 -60 -1 -96 38 -120 40 -24
60 -25 103 -4 72 34 79 134 12 174 -41 25 -74 25 -115 0z"/>
<path d="M1424 1176 c-41 -18 -64 -52 -64 -96 0 -118 170 -142 200 -29 23 85
-58 159 -136 125z"/>
<path d="M1985 1177 c-65 -22 -99 -43 -138 -86 -44 -48 -63 -84 -73 -136 -29
-148 37 -277 175 -342 128 -61 292 -14 371 105 103 156 47 363 -119 444 -55
27 -157 34 -216 15z m173 -154 c45 -33 72 -82 72 -129 0 -91 -60 -154 -153
-161 -174 -14 -232 229 -72 303 40 19 119 12 153 -13z"/>
<path d="M505 1169 c-105 -13 -198 -88 -235 -188 -57 -152 4 -306 150 -379
173 -87 381 12 425 201 48 209 -125 394 -340 366z m136 -163 c58 -40 86 -132
59 -196 -33 -79 -133 -119 -212 -84 -142 64 -123 262 30 303 31 9 96 -4 123
-23z"/>
<path d="M1102 1154 c-67 -47 -60 -144 14 -179 112 -53 205 107 103 179 -30
20 -88 21 -117 0z"/>
<path d="M1229 716 c-107 -38 -187 -126 -206 -226 -10 -51 -10 -71 -1 -121 17
-91 72 -164 163 -215 43 -24 61 -27 130 -27 94 0 151 22 213 81 161 155 105
423 -105 502 -61 23 -141 25 -194 6z m159 -147 c150 -73 100 -301 -66 -301
-78 0 -131 39 -158 115 -13 39 -3 100 23 136 23 31 97 71 132 71 14 0 45 -10
69 -21z"/>
</g>
</svg>
