<svg version="1" xmlns="http://www.w3.org/2000/svg" width="1365.333" height="1365.333" viewBox="0 0 1024.000000 1024.000000"><path d="M479.5 66.2c-2.7.4-7 1-9.5 1.3-14.3 1.9-34.2 10.8-49 22.1-19.3 14.6-36.9 41.6-41.4 63.5-.3 1.3-.7 3.4-1 4.6-2.1 9.5-2.7 25.6-1.4 36.8 4.5 37.4 27.6 70.8 61.3 88.3 4.9 2.6 9.4 4.7 12.5 5.7.3.1 1.2.4 2 .7 19.5 7.4 47.8 8.2 69 1.9 35.8-10.6 64.1-37.3 76.3-72.1 2.2-6.3 3.8-12.4 3.9-14.5 0-.2.5-2.7 1.3-5.3 1.8-7.1 1.3-31.6-.9-41.7-10.3-47-45.4-81.3-91.8-90-9.9-1.8-23.8-2.4-31.3-1.3zm24.9 54.7c11.7 2.8 21 8.2 30.1 17.5 14.4 14.8 20.6 38.8 15 58.3-4.4 15.2-17.3 31.5-30 37.8-3.3 1.6-6.2 3-6.5 3.1-.3 0-1.7.6-3.3 1.2-4.3 1.8-7.5 2.3-17.5 2.7-16.3.6-31.8-5.4-43.5-16.9-18.1-17.7-23.7-43.4-14.5-66.6 7.5-18.9 26-34.5 44.6-37.5 2-.3 3.7-.7 3.9-.9.8-.8 17.1.2 21.7 1.3zM761.5 228c-2.2.4-5.4 1-7.2 1.3-6.7 1.1-22.5 6.8-28.3 10.2-1.9 1.2-4.2 2.4-5.1 2.7-2.9 1.1-17.3 12.4-22.8 17.9-16.1 16.3-29.3 41.6-31.6 60.9-.3 2.5-.7 5.6-1 7-1.4 6.6-.5 26.1 1.6 36 1.7 8.2 1.9 9.1 4.5 15.8 6.3 16.8 14.3 29.3 26.8 41.8 16 15.9 32.8 25.3 56.1 31.3 11.3 2.9 33.9 3.2 46.5.6 1.4-.3 3.5-.7 4.8-.9 4.9-1 18.1-5.9 24.6-9.2 28.5-14.3 50.2-40.2 59-70.5 3.3-11.5 3.7-14.4 4.1-29.9.3-14.3-.8-23.1-4.4-35-1.2-3.8-2.2-7.2-2.2-7.5-.1-1.6-8.7-17.9-12-22.7-17.6-25.9-43.3-42.3-77.4-49.3-4.8-1-31.6-1.4-36-.5zm35.5 54.6c14.1 4 29.3 16.6 36.3 30.1 15.7 30.4 3.6 68.4-26.3 83-9.7 4.7-10.4 4.9-20 6.1-28.3 3.7-55.9-13.5-65.1-40.5-5.3-15.8-4.2-33.2 3.2-47.7 6.2-12.1 14.3-20.3 26.6-26.7 6.7-3.6 19.6-7.5 21.2-6.5.4.3 1.2.1 1.9-.3 1.6-1 15.4.6 22.2 2.5zM194.5 237.1c-14.6 1.9-21.8 3.8-33.5 8.7-14.4 6.1-26.1 13.7-36.5 23.8-5.8 5.6-14.8 16.6-17.1 20.9-8.8 16.3-12.7 26.6-14.9 39.5-.3 1.9-.8 4.8-1.1 6.4-.7 4.4-.8 20.4 0 27.1C98 422.2 148.6 466.8 207 465.4c11.6-.3 16-.8 26.1-3.4 42.3-10.8 74.4-44.5 83.8-88 6.2-29-.2-61.4-17.4-87.9-5.8-8.9-19.5-23-28.7-29.5-12.3-8.6-27.1-15-42.3-18.1-8.8-1.7-26.1-2.5-34-1.4zm28.5 55.2c9.5 3.2 14.9 6.3 22.2 12.7 6.2 5.4 13.2 15 15 20.3.6 1.8 1.4 3.6 1.8 4.2 1.4 2 3.2 11.2 3.6 18.5 1.3 24.2-12.7 47.7-34.8 58-3.6 1.7-7.4 3.3-8.4 3.5-1.1.2-3.6.9-5.7 1.4-2.2.5-8.2.8-13.5.7-16-.3-29.5-6.1-40.8-17.4-21.6-21.6-24.3-55.6-6.3-80.1 15.3-20.6 43.3-29.7 66.9-21.8zM539 357.6c-23.5 6.2-35.7 32.8-25.4 55.4 4.7 10.3 16 19.1 27.3 21.5 35.7 7.4 61.3-33 39.6-62.5-9.1-12.4-26.3-18.3-41.5-14.4zM427 362.1c-11.3 2.1-22.1 10.7-27.4 21.9-2.8 5.9-3.1 7.4-3.1 16.5 0 9.2.3 10.5 3.3 16.9 12 25.4 44.6 30.6 64.3 10.2 3.6-3.7 8.6-12.6 9.2-16.3.1-1 .5-2.3.8-2.8.9-1.7.3-14.7-.9-19-3.1-10.8-12.9-21.4-23.7-25.4-6.4-2.4-15.7-3.2-22.5-2zM602 454.3c-.3.3-2 .8-3.8 1.2-6.7 1.1-15.4 7.2-20.7 14.4-6.9 9.5-9.4 21.3-6.9 32.4 1.9 8.1 4.8 13.3 10.8 19.1 8.7 8.7 17.9 12.1 30.1 11.4 10.2-.7 17.8-4.1 25.2-11.5 10.3-10.1 14.1-24.7 10-38.3-4.9-16.4-19.1-27.7-36.1-28.7-4.5-.3-8.3-.3-8.6 0zM375 460c-18.3 4.6-30.5 19.9-30.8 38.4-.2 20.5 16.9 38.9 36.9 39.7 7.6.3 13.5-.9 19.7-3.9 5.9-2.8 13.8-10.1 16.2-14.8.8-1.6 1.8-3.1 2.1-3.4.3-.3 1.4-3.5 2.4-7.2 4.8-18.1-4.2-37.1-21.9-45.8-7-3.5-17.7-4.8-24.6-3zM782.7 549.6c-.1.1-3.1.5-6.7.7-18.6 1.5-42.2 10.4-58 22.1-5 3.6-7.7 5.9-14.4 12.1-3.1 2.9-11.3 13-14.2 17.6-7.6 12.1-14.2 29.1-16.5 42.4-1.3 8.3-1.8 26.4-.8 32 .4 2.2 1 6.1 1.3 8.6.9 7 5.9 21.5 10.4 30.4 25.8 51.2 86 75.4 139.9 56.4 46.2-16.3 76.5-59.3 76.4-108.4 0-4.4-.2-9.4-.5-11-.3-1.7-.8-5-1.1-7.5-2.9-21.5-15.5-46.1-32.2-62.7-18.2-18-42.1-29.7-65.3-31.8-7.6-.7-17.9-1.2-18.3-.9zm15.1 53.9c1.2.3 3.2.7 4.5 1 1.2.2 6 2.3 10.6 4.6 21.1 10.4 34.6 33.1 33.5 56.4-.4 10.3-1.1 13.7-4 20.9-9.3 22.8-30.5 37.3-56.1 38.1-26.9.9-51.3-16.7-59.5-42.8-8.5-27.2 2.5-55.7 27.4-70.9 6-3.7 13.2-6.3 21.8-7.8 4.4-.8 17.3-.5 21.8.5zM549.5 552.7c-25 5.3-38.8 32.2-28.3 55.2 13.3 29.1 54.3 30.9 70.1 3.1 7.6-13.5 6.7-30.4-2.5-43.3-3.2-4.5-11.3-10.4-17.3-12.6-5.3-2-17.7-3.4-22-2.4zM197.5 557.2c-7.6 1-20.9 4.4-24.6 6.4-1.6.8-2.9 1.2-2.9 1 0-.8-13.3 6.5-20 10.9-13.6 9.1-26.5 23-35.1 38-4.7 8.1-10.8 23.7-12.3 31.5-.3 1.4-.7 3.4-.9 4.5-1.9 8.6-2.4 22.3-1.3 33.5.8 7.6 1.2 9.5 4.1 19.5 8.7 29.8 29.1 54.8 56.6 69.4 8.2 4.3 22.4 9.6 28.5 10.5 2.1.4 4.6.8 5.4 1.1 4.2 1.2 8.5 1.6 19.5 1.5 6.6 0 13.4-.2 15-.5 1.7-.3 4.1-.8 5.5-1 9.5-1.7 19.8-5.1 29.8-9.8 22-10.6 41.2-29.7 51.9-51.8 4-8.2 8-18.7 8.9-23.2.2-1.2 1-5.6 1.8-9.7 1.8-9.2 1.8-28.4 0-38.2-7.5-39.9-32.7-71-69.7-85.8-8.4-3.3-19.1-6.3-27.2-7.5-7.2-1.1-26-1.3-33-.3zm28.4 52.9c8.3 1.4 21.1 7.4 27.7 13.1 6.4 5.4 13.4 14.7 16.6 21.8 2.3 5.1 2.9 6.9 4.6 14 .3 1.4.6 7 .5 12.5 0 8.2-.5 11.5-2.7 18-13.7 40.1-61.8 54.9-95 29.1-26-20.2-31.4-57.2-12.2-84.1 13.9-19.4 36.4-28.5 60.5-24.4zM434.7 557.6c-18.8 4.4-31.2 20.5-30.6 39.9.7 22.4 19.6 39.5 41.9 38 6.9-.5 11-1.7 16.8-5.1 17.1-9.9 24.2-30.8 16.7-49.3-7.1-17.6-26.4-27.8-44.8-23.5zM485 725.5c-9.9 1.8-10.4 1.9-18 4.5-35.7 12.3-63.5 41.8-73.7 78.4-4.6 16.8-5.2 40-1.3 55.6 1.2 4.7 2.3 9.2 2.5 10 .2.8 1.7 4.9 3.5 9 12.7 30.7 38.3 54.5 69.8 65 8.6 2.8 10.5 3.3 21.2 4.9 6.1 1 25.9.7 33-.4 7.9-1.3 21.2-5.5 29.6-9.4 28.7-13.5 51.4-39.5 60.8-69.8 3.6-11.3 4.8-19.2 5.1-32.8.7-37.2-16-71.2-46.3-93.9-12.6-9.5-25.4-15.5-41.7-19.6-11.2-2.8-33.2-3.5-44.5-1.5zm28.4 53c4.7.6 14.7 4 19.6 6.8 22.5 12.6 34.9 38.6 30.4 64.1-1.6 9.1-3.7 14.5-8.9 22.6-9.1 14.2-24.5 24.5-41 27.5-16.9 3-37.2-3-50.8-15.2-7-6.2-15.1-18.7-17.2-26.8-.5-1.7-.9-3.5-1.1-4-3.3-11.2-1.9-26.9 3.4-39 7.1-16.1 18.5-26.8 35.9-33.6 4.4-1.7 17.4-3.6 21.8-3.2 2.2.2 5.8.5 7.9.8z"/></svg>